<?xml version="1.0" encoding="utf-8"?>
<!-- Generator: Adobe Illustrator 23.0.4, SVG Export Plug-In . SVG Version: 6.00 Build 0)  -->
<svg version="1.1" id="Layer_1" xmlns="http://www.w3.org/2000/svg" xmlns:xlink="http://www.w3.org/1999/xlink" x="px" y="0px"
	 width="150" height="50" viewBox="0 0 595 166" style="enable-background:new 0 0 595 166;" xml:space="preserve">
<style type="text/css">
	.st0{fill:#FFFFFF;}
</style>
<title>allianz_w</title>
<g id="Vordergrund">
	<path class="st0" d="M503.3,12.6c38.4,0,69.4,31.6,69.4,70.3s-31,70.4-69.4,70.4s-69.4-31.6-69.4-70.4S464.9,12.6,503.3,12.6z
		 M503.3,24c-32,0-58,26.3-58,59s26.1,59,58,59s58-26.3,58-59S535.3,24,503.3,24L503.3,24z"/>
	<path class="st0" d="M465,60.7c0-3.8,3.1-6.8,6.8-6.8h12.8v68.6H465V60.7z"/>
	<path class="st0" d="M541.5,60.7c0-3.8-3.1-6.8-6.8-6.8h-12.8v68.6h19.6V60.7z"/>
	<path class="st0" d="M487.5,45.6c4.5,0,6,1.6,6,5.6v71.3h19.5V43.9c0-3.8-3-6.8-6.8-6.8c0,0,0,0,0,0h-18.7V45.6z"/>
	<path class="st0" d="M103.9,41.6c4.5,0,6,1.6,6,5.6v76.9h21.2V40.3c0-3.8-3-6.8-6.8-6.8c0,0,0,0,0,0h-20.4L103.9,41.6z"/>
	<path class="st0" d="M139.5,41.6c4.5,0,6,1.6,6,5.6v76.9h21.2V40.3c0-3.8-3-6.8-6.8-6.8l0,0h-20.4V41.6z"/>
	<path class="st0" d="M175.4,64.6c4.5,0,6,1.6,6,5.6v53.9h21.2V63.3c0-3.8-3-6.8-6.8-6.8c0,0,0,0,0,0h-20.4L175.4,64.6z"/>
	<ellipse class="st0" cx="190.9" cy="42" rx="12.4" ry="10.3"/>
	<path class="st0" d="M304.6,63.9v-0.6c0-3.8-3-6.8-6.8-6.8c0,0,0,0,0,0h-20.4v8.1c4.5,0,6,1.6,6,5.6v53.9h21.2V78.7
		c8.7-10.6,16.5-6.9,16.5,0V124h21.2V73.5c0-18.1-13.5-18.6-17.2-18.6C317.1,54.8,309.1,60.2,304.6,63.9z"/>
	<path class="st0" d="M379.7,69.8L351.3,110v14.1h52.6V110h-29.2l28-40.1V56.5h-44.1c-3.8,0-6.8,3-6.8,6.8v12.6h8.1
		c0-4.5,1.6-6,5.6-6H379.7z"/>
	<path class="st0" d="M63.1,54c2,8.1,5.2,21.1,8.4,33.9H53.7L63.1,54z M75.4,102.8l5.4,21.3H104L81.4,40.3c-1.1-3.9-4.6-6.6-8.6-6.8
		H39.1v8.4c0,0,10-1.5,7.3,6.9c-23.1,72.3-24.1,75.2-24.1,75.2h21.6l5.8-21.3L75.4,102.8z"/>
	<path class="st0" d="M268.5,111.3V78c0-10.9-2.9-23.1-21.5-23.1c-11.1-0.1-21.9,2.6-31.7,7.8l4.9,13.1c0,0,10.4-5.9,20.5-5.9
		c7.5,0,7.5,8.3,7.5,8.9v1.1c0,0-18.5,2.9-24.2,5.8c-5.8,2.9-11.9,7.1-11.9,20.9c0,10.8,3.9,18.8,16.8,18.8s19.4-7.9,19.4-7.9
		c0,4.5,2.3,6.8,6.2,6.8H274v-6.9C274,117.2,268.5,117.7,268.5,111.3z M248.2,104.9c0,0-5,5.8-10.7,5.8c-4,0-5.6-2.4-5.6-6.7v-1.7
		c0-7.4,10.1-10.7,16.3-10.7V104.9z"/>
</g>
</svg>
